<svg width="60" height="28" viewBox="0 0 60 28" fill="none" xmlns="http://www.w3.org/2000/svg">
<path d="M21.2326 23.7654C21.1217 23.7654 21.0662 23.6434 21.0662 23.3994C21.0662 23.1775 21.1328 22.8669 21.2659 22.4675C21.4878 21.8241 21.8761 20.9588 22.4307 19.8717C23.0076 18.7845 23.6732 17.5754 24.4275 16.2442C25.2041 14.913 26.025 13.5374 26.8902 12.1174C27.7777 10.6975 28.643 9.33301 29.4861 8.024C30.3514 6.6928 31.139 5.49472 31.849 4.42976C32.5811 3.3648 33.1802 2.52171 33.6461 1.90048C34.1342 1.27925 34.4337 0.968639 34.5446 0.968639H34.8442C35.0438 0.968639 35.1437 1.0352 35.1437 1.16832C35.1437 1.30144 35.0217 1.52331 34.7776 1.83392C33.8458 3.05419 32.8585 4.42976 31.8157 5.96064C30.7729 7.46933 29.7301 9.03349 28.6874 10.6531C27.6668 12.2727 26.6906 13.8702 25.7587 15.4454C24.8269 17.0207 23.9949 18.4961 23.2627 19.8717C22.5306 21.2473 21.9537 22.4231 21.5322 23.3994C21.4212 23.6434 21.3214 23.7654 21.2326 23.7654ZM7.18848 27.7923C7.07755 27.7923 7.02208 27.6703 7.02208 27.4262C7.02208 27.2044 7.08864 26.8938 7.22176 26.4944C7.44363 25.851 7.84299 24.9635 8.41984 23.832C9.01888 22.7227 9.72885 21.4802 10.5498 20.1046C11.3707 18.7069 12.2249 17.2758 13.1123 15.8115C12.6242 15.8781 12.1361 15.9446 11.648 16.0112C11.1821 16.0778 10.7273 16.1554 10.2835 16.2442C7.42144 16.7323 5.3248 17.4201 3.9936 18.3075C2.68459 19.1728 2.03008 19.9715 2.03008 20.7037C2.03008 21.1474 2.24085 21.5357 2.6624 21.8685C2.70677 21.9129 2.72896 21.9461 2.72896 21.9683C2.72896 21.9905 2.68459 22.0016 2.59584 22.0016C2.46272 22.0016 2.36288 21.9683 2.29632 21.9018C1.34229 21.1918 0.86528 20.3265 0.86528 19.3059C0.86528 18.5738 1.14261 17.8416 1.69728 17.1094C2.27413 16.3773 3.1616 15.7117 4.35968 15.1126C5.57995 14.4914 7.14411 14.0144 9.05216 13.6816C9.984 13.5041 10.9269 13.371 11.881 13.2822C12.8572 13.1935 13.8223 13.1602 14.7763 13.1824C15.5529 11.9621 16.3072 10.8084 17.0394 9.72128C17.7715 8.63413 18.426 7.66901 19.0029 6.82592C19.6019 5.96064 20.09 5.28395 20.4672 4.79584C20.8666 4.30773 21.1106 4.06368 21.1994 4.06368H21.4989C21.6986 4.06368 21.7984 4.13024 21.7984 4.26336C21.7984 4.39648 21.6764 4.61835 21.4323 4.92896C20.5892 6.06048 19.6685 7.34731 18.6701 8.78944C17.6717 10.2094 16.6733 11.6848 15.6749 13.2157C16.7177 13.2822 17.7493 13.4154 18.7699 13.615C19.1693 13.7038 19.6352 13.8258 20.1677 13.9811C20.7002 14.1364 21.2215 14.3361 21.7318 14.5802C22.2643 14.802 22.7191 15.0905 23.0963 15.4454C23.4735 15.8004 23.6954 16.222 23.7619 16.7101C23.7841 16.8654 23.7619 16.943 23.6954 16.943C23.651 16.9209 23.6066 16.8654 23.5622 16.7766C23.4735 16.5104 23.174 16.2996 22.6637 16.1443C22.1756 15.989 21.6542 15.8781 21.0995 15.8115C20.567 15.7228 20.1677 15.6673 19.9014 15.6451C19.2137 15.5786 18.4926 15.5453 17.7382 15.5453C16.518 15.5453 15.2866 15.6118 14.0442 15.745C13.0901 17.2537 12.1805 18.7402 11.3152 20.2045C10.4499 21.6466 9.68448 22.9889 9.01888 24.2314C8.37547 25.4738 7.86517 26.5388 7.488 27.4262C7.37707 27.6703 7.27723 27.7923 7.18848 27.7923ZM35.4273 26.1283C35.3386 26.1283 35.2609 26.0839 35.1944 25.9952C35.15 25.9286 35.1611 25.8399 35.2277 25.729C35.383 25.4849 35.5937 25.1188 35.86 24.6307C36.1484 24.1426 36.4923 23.5879 36.8917 22.9667C36.5145 23.1442 36.0929 23.3106 35.627 23.4659C35.1611 23.6434 34.7617 23.7654 34.4289 23.832C34.0961 23.9207 33.9408 23.9207 33.963 23.832C34.074 23.4548 34.2736 22.7338 34.5621 21.6688C34.8505 20.5817 35.1722 19.2837 35.5272 17.775C35.8822 16.2663 36.2039 14.6689 36.4923 12.9827C36.7807 11.2743 36.9693 9.62144 37.0581 8.024C37.0802 7.84651 37.0913 7.68011 37.0913 7.5248C37.0913 7.34731 37.0913 7.18091 37.0913 7.0256C37.0913 5.38379 36.8473 4.10805 36.3592 3.1984C35.8711 2.28875 35.2498 1.83392 34.4955 1.83392C33.8077 1.83392 33.0645 2.23328 32.2657 3.032C31.4892 3.80853 30.7238 5.03989 29.9694 6.72608C29.5257 7.74667 29.1818 8.82272 28.9377 9.95424C28.7159 11.0858 28.6493 12.184 28.7381 13.249V13.3155C28.7381 13.4708 28.7048 13.5818 28.6382 13.6483C28.5717 13.6927 28.5051 13.6372 28.4385 13.4819C28.3054 13.1935 28.2056 12.8274 28.139 12.3837C28.0725 11.9399 28.0392 11.4629 28.0392 10.9526C28.0392 10.043 28.139 9.08896 28.3387 8.09056C28.5384 7.09216 28.8157 6.23797 29.1707 5.528C29.6366 4.66272 30.2246 3.88619 30.9345 3.1984C31.6445 2.51061 32.41 1.96704 33.2309 1.56768C34.0518 1.16832 34.8616 0.968639 35.6603 0.968639C36.5256 0.968639 37.3243 1.25707 38.0565 1.83392C38.8108 2.41077 39.3655 3.38699 39.7205 4.76256C39.898 5.40597 40.0311 6.09376 40.1198 6.82592C40.2086 7.53589 40.2529 8.31243 40.2529 9.15552C40.2529 10.6642 40.0976 12.3726 39.787 14.2806C39.4764 16.1665 38.9994 18.2964 38.356 20.6704C39.1547 19.4723 40.0422 18.1744 41.0184 16.7766C41.9946 15.3789 43.0374 13.97 44.1467 12.5501C45.256 11.1079 46.3876 9.73237 47.5413 8.42336C48.695 7.11435 49.8487 5.92736 51.0024 4.8624C52.1561 3.79744 53.2654 2.95435 54.3304 2.33312C54.9072 2.00032 55.5506 1.7008 56.2606 1.43456C56.9928 1.16832 57.6584 1.0352 58.2574 1.0352C58.923 1.0352 59.4 1.22379 59.6885 1.60096C59.7328 1.68971 59.755 1.74517 59.755 1.76736C59.755 1.85611 59.6996 1.90048 59.5886 1.90048C59.4777 1.90048 59.3668 1.88939 59.2558 1.8672C58.2574 1.80064 57.1259 2.12235 55.8613 2.83232C54.5966 3.54229 53.2654 4.51851 51.8677 5.76096C50.4921 7.00341 49.0943 8.41227 47.6744 9.98752C46.2766 11.5406 44.9232 13.138 43.6142 14.7798C42.3274 16.4217 41.1404 17.9969 40.0533 19.5056C38.9661 20.9921 38.0454 22.3011 37.291 23.4326C36.5589 24.5642 36.0486 25.3962 35.7601 25.9286C35.6936 26.0618 35.5826 26.1283 35.4273 26.1283Z" fill="#032E44"/>
</svg>
