<svg width="126" height="126" viewBox="0 0 126 126" fill="none" xmlns="http://www.w3.org/2000/svg">
<path d="M55.0529 116.746L55.4487 114.251C55.5343 113.712 55.5284 113.368 55.4312 113.219C55.3006 113.008 55.0732 112.877 54.7489 112.826L54.4205 112.773L54.4575 112.54L58.1274 113.122L58.0903 113.356L57.7681 113.305C57.406 113.247 57.1283 113.324 56.9351 113.535C56.8302 113.652 56.739 113.955 56.6615 114.443L55.7837 119.977C55.6982 120.516 55.7019 120.859 55.7949 121.008C55.9297 121.219 56.1593 121.351 56.4835 121.402L56.8057 121.453L56.7686 121.687L53.6293 121.189C52.863 121.067 52.2714 120.891 51.8546 120.661C51.4372 120.435 51.1066 120.111 50.8629 119.688C50.6192 119.265 50.538 118.797 50.6195 118.283C50.7304 117.584 51.0522 117.052 51.5849 116.688C52.1134 116.323 52.7987 116.207 53.6409 116.341C53.8472 116.373 54.068 116.424 54.3034 116.491C54.5387 116.559 54.7886 116.644 55.0529 116.746ZM54.9958 117.106C54.7793 117.029 54.5864 116.966 54.4171 116.917C54.2478 116.869 54.1021 116.835 53.98 116.815C53.542 116.746 53.1384 116.855 52.7692 117.141C52.395 117.432 52.1652 117.846 52.0797 118.385C52.0209 118.756 52.0423 119.111 52.1438 119.451C52.2446 119.795 52.4216 120.067 52.6748 120.267C52.9273 120.471 53.2305 120.601 53.5842 120.657C53.7989 120.691 54.0811 120.695 54.4307 120.669L54.9958 117.106Z" fill="black"/>
<path d="M41.2641 108.709L43.4428 109.492L44.8342 114.3C45.0417 114.366 45.2096 114.422 45.338 114.468C45.3902 114.486 45.4464 114.507 45.5065 114.528C45.5653 114.554 45.626 114.58 45.6888 114.607L46.5409 112.236C46.7255 111.722 46.7839 111.383 46.7163 111.219C46.6273 110.987 46.4303 110.817 46.1253 110.707L45.8064 110.593L45.8864 110.37L49.3832 111.626L49.3031 111.849L48.9962 111.739C48.6511 111.615 48.364 111.639 48.1348 111.81C48.0058 111.904 47.8577 112.184 47.6905 112.649L45.7959 117.921C45.6113 118.435 45.5529 118.774 45.6205 118.939C45.7136 119.172 45.9145 119.344 46.2235 119.455L46.5304 119.565L46.4504 119.788L43.4773 118.719C42.6106 118.408 41.9957 118.114 41.6326 117.839C41.264 117.566 40.9985 117.208 40.8362 116.764C40.6684 116.323 40.6689 115.868 40.8376 115.399C41.0178 114.897 41.3388 114.521 41.8005 114.27C42.2581 114.018 42.8574 113.939 43.5983 114.033L42.7544 111.086C42.5624 110.41 42.3597 109.934 42.1463 109.658C41.9329 109.382 41.6122 109.14 41.1841 108.932L41.2641 108.709ZM45.5525 114.987C45.4763 114.959 45.4108 114.933 45.3561 114.909C45.2999 114.889 45.2538 114.872 45.2177 114.859C44.4393 114.58 43.7929 114.538 43.2786 114.733C42.7602 114.928 42.4073 115.286 42.2199 115.807C42.0368 116.317 42.0488 116.788 42.2558 117.22C42.4575 117.655 42.8211 117.967 43.3467 118.156C43.5794 118.239 43.9081 118.314 44.3327 118.381L45.5525 114.987Z" fill="black"/>
<path d="M31.3766 113.229C30.4193 112.637 29.816 111.76 29.5669 110.599C29.3118 109.438 29.5207 108.314 30.1934 107.226C30.8863 106.106 31.815 105.394 32.9796 105.092C34.1442 104.789 35.2287 104.949 36.2332 105.57C37.2485 106.198 37.8794 107.087 38.1258 108.236C38.3685 109.384 38.1356 110.531 37.427 111.677C36.7027 112.848 35.713 113.557 34.4577 113.803C33.3682 114.017 32.3412 113.825 31.3766 113.229ZM31.7255 112.896C32.3855 113.304 33.0663 113.387 33.7679 113.144C34.6414 112.842 35.4414 112.103 36.1679 110.928C36.9124 109.724 37.2279 108.639 37.1143 107.671C37.024 106.934 36.6543 106.364 36.0052 105.963C35.3126 105.534 34.5744 105.451 33.7907 105.714C33.0033 105.974 32.2497 106.686 31.5298 107.85C30.7495 109.112 30.416 110.206 30.5293 111.134C30.6233 111.873 31.022 112.461 31.7255 112.896Z" fill="black"/>
<path d="M19.3749 103.322L20.7012 101.777L20.8779 101.944C20.6662 102.237 20.5371 102.467 20.4906 102.634C20.417 102.905 20.4213 103.158 20.5035 103.394C20.5796 103.63 20.7479 103.871 21.0084 104.117L21.8966 104.955L26.4448 100.137C26.8106 99.7495 26.9971 99.4682 27.0041 99.2931C27.0092 99.0516 26.8893 98.8153 26.6444 98.5841L26.4258 98.3778L26.5882 98.2057L29.2623 100.73L29.0998 100.902L28.8766 100.691C28.61 100.44 28.3448 100.342 28.081 100.398C27.9191 100.432 27.6713 100.627 27.3377 100.98L22.7895 105.798L23.5475 106.514C23.8421 106.792 24.0718 106.967 24.2368 107.041C24.4537 107.134 24.6984 107.151 24.9712 107.092C25.244 107.033 25.5258 106.871 25.8168 106.607L25.9935 106.773L24.523 108.182L19.3749 103.322Z" fill="black"/>
<path d="M13.9669 96.8393C13.3207 95.9176 13.1124 94.8739 13.3418 93.7082C13.5652 92.5414 14.2006 91.5909 15.248 90.8567C16.3268 90.1005 17.4609 89.8131 18.6503 89.9946C19.8397 90.1762 20.7734 90.7504 21.4514 91.7175C22.1366 92.695 22.3656 93.7607 22.1383 94.9146C21.9086 96.0649 21.2421 97.0268 20.1389 97.8002C19.0112 98.5907 17.8221 98.8515 16.5714 98.5827C15.4861 98.3491 14.6179 97.7679 13.9669 96.8393ZM14.4189 96.6708C14.8643 97.3062 15.4573 97.6507 16.1978 97.7043C17.1196 97.7715 18.1461 97.4086 19.2772 96.6156C20.4363 95.8031 21.1546 94.9299 21.4319 93.9961C21.64 93.2827 21.525 92.6135 21.0869 91.9886C20.6194 91.3218 19.9739 90.9543 19.1502 90.886C18.3241 90.8143 17.3507 91.1712 16.23 91.9568C15.0151 92.8085 14.2768 93.6827 14.0151 94.5795C13.8095 95.2964 13.9441 95.9935 14.4189 96.6708Z" fill="black"/>
<path d="M6.84731 83.001L8.67548 82.1048L8.77204 82.3278C8.46202 82.5132 8.25268 82.6735 8.14402 82.8088C7.96961 83.0284 7.87363 83.2628 7.85608 83.512C7.83293 83.7589 7.89251 84.0468 8.03481 84.3754L8.52018 85.4964L14.6003 82.8637C15.0893 82.6519 15.3717 82.467 15.4472 82.3088C15.5472 82.089 15.5302 81.8245 15.3964 81.5154L15.2769 81.2396L15.4941 81.1456L16.9553 84.5202L16.7381 84.6142L16.6161 84.3325C16.4704 83.996 16.2654 83.8014 16.0009 83.7486C15.8385 83.7168 15.5342 83.7974 15.0882 83.9905L9.00808 86.6232L9.42229 87.5798C9.58323 87.9515 9.72497 88.2037 9.84751 88.3365C10.0099 88.5078 10.2281 88.62 10.5021 88.6733C10.7761 88.7266 11.0989 88.689 11.4708 88.5605L11.5673 88.7835L9.66038 89.4977L6.84731 83.001Z" fill="black"/>
<path d="M4.33296 73.4485L3.71468 70.4873L3.94632 70.439L3.9803 70.6017C4.00296 70.7103 4.08407 70.8588 4.22363 71.0475C4.36319 71.2361 4.54057 71.3972 4.75576 71.5309C4.97095 71.6645 5.30711 71.8143 5.76423 71.9802L9.41575 73.3541L11.5443 72.9097C12.066 72.8008 12.3793 72.6744 12.4843 72.5305C12.6265 72.3353 12.6618 72.0666 12.5904 71.7244L12.5328 71.4489L12.7645 71.4006L13.5174 75.0065L13.2858 75.0549L13.223 74.7544C13.1481 74.3955 12.9864 74.1635 12.738 74.0586C12.5853 73.9947 12.271 74.0124 11.7952 74.1117L9.78566 74.5313L6.71604 77.6026C6.35619 77.9652 6.13456 78.2075 6.05113 78.3294C5.96684 78.4472 5.88389 78.6758 5.8023 79.0151C5.778 79.1073 5.7824 79.2327 5.81551 79.3913L5.58388 79.4396L4.82574 75.8086L5.05738 75.7603L5.09659 75.9481C5.13755 76.1442 5.22136 76.3162 5.34804 76.464C5.47384 76.6076 5.62856 76.6602 5.8122 76.6219C5.96245 76.5905 6.20715 76.4066 6.54631 76.0701L8.91217 73.7272L5.94764 72.6083C5.50304 72.4398 5.18475 72.3756 4.99277 72.4157C4.87591 72.4401 4.7781 72.4931 4.69936 72.5749C4.61974 72.6525 4.56665 72.7529 4.5401 72.876C4.50937 73.0001 4.51753 73.1747 4.56459 73.4001L4.33296 73.4485Z" fill="black"/>
<path d="M7.98691 64.2798L10.513 64.2568C11.0587 64.2519 11.3971 64.1891 11.5282 64.0685C11.7143 63.9048 11.8058 63.6588 11.8028 63.3305L11.7998 62.998L12.0364 62.9958L12.0703 66.7114L11.8337 66.7135L11.8307 66.3874C11.8273 66.0207 11.7056 65.7596 11.4654 65.604C11.3325 65.52 11.0187 65.4802 10.5242 65.4847L4.92205 65.5357C4.37634 65.5407 4.03792 65.6013 3.90681 65.7176C3.72073 65.8856 3.62919 66.1338 3.63218 66.462L3.63515 66.7882L3.39853 66.7903L3.36958 63.612C3.36252 62.836 3.43795 62.2235 3.59588 61.7744C3.74955 61.3253 4.01471 60.9455 4.39136 60.6351C4.768 60.3247 5.21639 60.1671 5.73653 60.1624C6.44425 60.1559 7.02194 60.3852 7.46961 60.8501C7.91723 61.3108 8.14493 61.9675 8.1527 62.8201C8.1546 63.029 8.14173 63.2551 8.1141 63.4984C8.08647 63.7417 8.04408 64.0022 7.98691 64.2798ZM7.62239 64.2832C7.66297 64.0568 7.69312 63.8561 7.71284 63.6812C7.73257 63.5062 7.74187 63.3568 7.74074 63.2332C7.7367 62.7898 7.56269 62.4098 7.21871 62.0931C6.87042 61.7723 6.42342 61.6143 5.87771 61.6193C5.50253 61.6227 5.15576 61.7026 4.8374 61.859C4.51478 62.0154 4.27588 62.2351 4.1207 62.5179C3.96125 62.8007 3.88316 63.1212 3.88642 63.4794C3.8884 63.6968 3.93145 63.9757 4.01556 64.316L7.62239 64.2832Z" fill="black"/>
<path d="M4.47651 53.9524L7.85356 54.5408L8.18066 52.6632C8.26555 52.176 8.24876 51.8377 8.13029 51.6482C7.97513 51.3962 7.65613 51.2151 7.17328 51.105L7.2139 50.8719L10.1877 51.39L10.1471 51.6231C9.72102 51.6095 9.44406 51.6218 9.3162 51.6601C9.15602 51.7101 9.01892 51.8139 8.90491 51.9715C8.7909 52.129 8.7028 52.3863 8.6406 52.7434L8.31349 54.6209L11.1298 55.1116C11.5078 55.1774 11.7418 55.2009 11.8316 55.1819C11.9173 55.1622 11.9926 55.1147 12.0577 55.0395C12.1185 54.9636 12.1694 54.808 12.2104 54.5728L12.4629 53.1237C12.547 52.6406 12.5745 52.284 12.5454 52.0539C12.5162 51.8238 12.4205 51.5907 12.2582 51.3547C12.0432 51.0489 11.6969 50.7138 11.2194 50.3493L11.2633 50.0973L13.2771 51.2076L12.13 57.7916L11.8969 57.751L11.9496 57.4486C11.9847 57.247 11.9697 57.0474 11.9045 56.85C11.8608 56.7039 11.7757 56.596 11.6493 56.5264C11.5237 56.4526 11.253 56.3794 10.8371 56.307L5.28643 55.3399C4.74459 55.2455 4.40115 55.2419 4.25612 55.3292C4.06176 55.4511 3.93385 55.6885 3.87238 56.0413L3.81969 56.3438L3.58657 56.3032L4.73365 49.7192L6.62135 49.9507L6.57854 50.1964C6.11374 50.2063 5.78782 50.2512 5.60078 50.3312C5.41448 50.4069 5.25893 50.5421 5.13413 50.7367C5.04185 50.8938 4.95876 51.1844 4.88485 51.6086L4.47651 53.9524Z" fill="black"/>
<path d="M15.079 42.0843C15.1591 41.9006 15.291 41.7744 15.4745 41.7057C15.6541 41.6352 15.8338 41.6392 16.0136 41.7177C16.1933 41.7962 16.3195 41.928 16.3922 42.1132C16.4626 42.2929 16.4586 42.4726 16.3802 42.6523C16.3017 42.832 16.1718 42.9591 15.9905 43.0335C15.8069 43.1022 15.6253 43.0974 15.4456 43.0189C15.2619 42.9387 15.1348 42.8088 15.0644 42.6292C14.9956 42.4457 15.0005 42.264 15.079 42.0843Z" fill="black"/>
<path d="M20.0412 27.8609C20.5096 27.4629 20.9463 27.2316 21.3514 27.167C21.9145 27.079 22.4206 27.2081 22.8697 27.5543C23.2108 27.8172 23.455 28.1778 23.6024 28.6359C23.7465 29.0915 23.7453 29.5644 23.599 30.0545C23.4519 30.5387 23.0802 31.1674 22.4841 31.9406L19.9851 35.1822L19.7977 35.0377L19.9969 34.7794C20.2181 34.4924 20.2858 34.2161 20.1997 33.9506C20.1414 33.7819 19.9198 33.5491 19.5349 33.2523L15.0979 29.8318C14.6725 29.5039 14.3663 29.3459 14.1794 29.3579C13.9293 29.375 13.704 29.5136 13.5036 29.7736L13.3044 30.0319L13.117 29.8875L15.4052 26.9194C15.8321 26.3656 16.2149 25.9528 16.5536 25.681C17.0657 25.2682 17.5798 25.0482 18.0961 25.0209C18.6091 24.991 19.0664 25.131 19.4682 25.4408C19.8127 25.7063 20.0409 26.0491 20.1531 26.4693C20.2618 26.8869 20.2245 27.3508 20.0412 27.8609ZM17.7217 30.3041C17.8416 30.1974 17.9695 30.0699 18.1054 29.9216C18.2405 29.7673 18.3822 29.594 18.5306 29.4015C18.9106 28.9085 19.1433 28.4984 19.2287 28.1712C19.3133 27.838 19.2966 27.521 19.1786 27.2201C19.0606 26.9192 18.8717 26.6685 18.6117 26.4681C18.2098 26.1583 17.7408 26.0579 17.2047 26.1668C16.6686 26.2756 16.1584 26.6441 15.6742 27.2722C15.4139 27.6098 15.2168 27.9424 15.0828 28.2698L17.7217 30.3041ZM21.0038 32.8343C21.3969 32.5129 21.7406 32.1614 22.0347 31.7799C22.5059 31.1687 22.7284 30.5973 22.7021 30.0657C22.6725 29.5314 22.4552 29.1081 22.05 28.7957C21.7832 28.5901 21.4706 28.4649 21.1122 28.42C20.7537 28.3752 20.3774 28.4619 19.983 28.6801C19.5887 28.8983 19.2054 29.2488 18.8332 29.7317C18.6718 29.941 18.5372 30.1226 18.4294 30.2764C18.3216 30.4302 18.2411 30.5591 18.1877 30.6633L21.0038 32.8343Z" fill="black"/>
<path d="M32.8142 21.6318L31.065 23.1484L26.1909 22.0078C26.0322 22.1567 25.9013 22.2758 25.7982 22.3652C25.7563 22.4015 25.7112 22.4406 25.6629 22.4825C25.6118 22.5212 25.5591 22.5612 25.5048 22.6027L27.1554 24.5066C27.5129 24.9189 27.78 25.1359 27.9568 25.1576C28.2021 25.1932 28.4472 25.1048 28.692 24.8926L28.9481 24.6705L29.1031 24.8493L26.2957 27.2834L26.1407 27.1046L26.3871 26.8909C26.6641 26.6507 26.7841 26.3888 26.7468 26.105C26.7279 25.9465 26.5565 25.6804 26.2325 25.3067L22.5625 21.0738C22.205 20.6615 21.9379 20.4445 21.7611 20.4228C21.5126 20.39 21.2643 20.4811 21.0162 20.6962L20.7698 20.9099L20.6148 20.7311L23.0018 18.6615C23.6976 18.0582 24.2545 17.6657 24.6725 17.4839C25.0909 17.2961 25.5331 17.2399 25.9993 17.3154C26.4658 17.3849 26.8625 17.6081 27.1892 17.985C27.5384 18.3877 27.7093 18.8517 27.7021 19.3771C27.6981 19.8997 27.4738 20.461 27.0291 21.061L30.0118 21.7677C30.6953 21.9312 31.2096 21.9875 31.5548 21.9365C31.8999 21.8856 32.2681 21.7244 32.6592 21.453L32.8142 21.6318ZM25.2408 22.2983C25.302 22.2452 25.3566 22.2008 25.4045 22.1649C25.4496 22.1258 25.4866 22.0937 25.5156 22.0685C26.1406 21.5267 26.4936 20.9836 26.5747 20.4393C26.659 19.8922 26.5196 19.4093 26.1565 18.9905C25.8018 18.5814 25.3852 18.3613 24.9069 18.3302C24.429 18.2932 23.979 18.4576 23.557 18.8234C23.3702 18.9854 23.1438 19.2353 22.878 19.573L25.2408 22.2983Z" fill="black"/>
<path d="M37.6538 15.4359L34.716 17.0617L34.8639 18.544C34.9002 18.9089 34.9586 19.1641 35.0391 19.3096C35.1031 19.4252 35.2139 19.4979 35.3717 19.5276C35.5311 19.5514 35.8008 19.4753 36.1808 19.2991L36.2954 19.5061L33.906 20.8284L33.7915 20.6213C34.0776 20.3899 34.2425 20.2036 34.2862 20.0625C34.3774 19.7781 34.3869 19.2978 34.3147 18.6214L33.528 10.8995L33.7238 10.7912L39.858 15.6415C40.3514 16.0311 40.7262 16.255 40.9824 16.3129C41.2403 16.3651 41.5293 16.3149 41.8492 16.1622L41.9638 16.3692L38.9701 18.0259L38.8555 17.8189C39.1494 17.6367 39.3249 17.4739 39.3819 17.3303C39.4426 17.1846 39.4388 17.0502 39.3707 16.9271C39.2799 16.763 39.0618 16.545 38.7165 16.2732L37.6538 15.4359ZM37.2679 15.1086L34.284 12.7544L34.6604 16.5516L37.2679 15.1086Z" fill="black"/>
<path d="M40.9117 7.39259L43.1686 6.72517L50.0971 11.4587L48.6789 6.66289C48.5277 6.15182 48.3762 5.84984 48.2242 5.75695C48.0222 5.62997 47.7576 5.61484 47.4305 5.71157L47.1423 5.79681L47.0752 5.56989L49.9699 4.71386L50.037 4.94077L49.7426 5.02783C49.391 5.13181 49.173 5.31187 49.0887 5.568C49.0374 5.72543 49.0807 6.03719 49.2186 6.50329L51.2915 13.5131L51.0708 13.5784L43.6075 8.50273L45.1219 13.6236C45.2731 14.1347 45.4226 14.4373 45.5704 14.5314C45.7766 14.6572 46.0411 14.6723 46.3641 14.5768L46.6585 14.4897L46.7256 14.7166L43.8309 15.5727L43.7638 15.3457L44.0521 15.2605C44.4078 15.1553 44.6278 14.9747 44.7121 14.7185C44.7634 14.5611 44.7201 14.2493 44.5822 13.7832L42.872 7.99999C42.5473 7.78921 42.3083 7.6576 42.155 7.60513C42.0057 7.55145 41.799 7.52144 41.5348 7.5151C41.4054 7.51336 41.22 7.54816 40.9788 7.6195L40.9117 7.39259Z" fill="black"/>
<path d="M54.3783 12.6512L54.3618 12.4151L54.6872 12.3924C55.053 12.3669 55.3043 12.2319 55.4411 11.9873C55.5249 11.8404 55.5497 11.5224 55.5156 11.0333L55.1259 5.44449C55.0883 4.90433 55.0051 4.57035 54.8766 4.44255C54.6976 4.26697 54.4444 4.1906 54.1169 4.21343L53.7915 4.23612L53.7751 4.00007L57.2968 3.75451C58.5898 3.66436 59.5825 3.74259 60.275 3.98921C60.9717 4.23553 61.5481 4.68684 62.0041 5.34315C62.4645 5.99915 62.7259 6.77587 62.7885 7.67331C62.8724 8.87698 62.5768 9.90837 61.9015 10.7675C61.1435 11.7264 59.9245 12.2645 58.2445 12.3816L54.3783 12.6512ZM56.8037 11.8538C57.3522 11.9352 57.8093 11.9632 58.1751 11.9377C59.1618 11.8689 59.9564 11.4651 60.5588 10.7265C61.1612 9.98784 61.421 9.02519 61.3383 7.83853C61.255 6.64337 60.8639 5.72396 60.1651 5.08031C59.4663 4.43666 58.6066 4.15042 57.5858 4.22159C57.203 4.24828 56.7713 4.34035 56.2908 4.4978L56.8037 11.8538Z" fill="black"/>
<path d="M69.266 12.3843L69.2431 12.6198L65.5448 12.2605L65.5677 12.0249L65.8733 12.0546C66.2297 12.0893 66.4987 12.0104 66.6801 11.8182C66.7952 11.6923 66.8778 11.3705 66.9281 10.8527L67.4699 5.27666C67.5124 4.83957 67.5128 4.54833 67.4713 4.40293C67.4391 4.29272 67.361 4.19303 67.2369 4.10386C67.06 3.98388 66.8698 3.91399 66.6661 3.8942L66.3606 3.86451L66.3834 3.62899L70.0817 3.98831L70.0588 4.22383L69.7469 4.19352C69.3947 4.1593 69.1279 4.23833 68.9464 4.4306C68.8271 4.55608 68.7424 4.87769 68.6921 5.3954L68.1503 10.9715C68.1078 11.4086 68.1074 11.6998 68.1489 11.8452C68.1811 11.9554 68.2613 12.0553 68.3897 12.1449C68.5623 12.2645 68.7504 12.3342 68.9541 12.3539L69.266 12.3843Z" fill="black"/>
<path d="M73.0559 4.25906L75.3283 4.87164L78.7544 12.5315L80.0561 7.70271C80.1949 7.18814 80.2238 6.8515 80.1429 6.69282C80.0372 6.47886 79.8197 6.32749 79.4904 6.23871L79.2002 6.16047L79.2617 5.932L82.1763 6.7177L82.1147 6.94617L81.8183 6.86627C81.4643 6.77083 81.1843 6.81017 80.9784 6.98428C80.8523 7.0916 80.726 7.37991 80.5995 7.8492L78.6969 14.9071L78.4746 14.8472L74.772 6.61603L73.382 11.7721C73.2433 12.2867 73.2123 12.6227 73.2891 12.7803C73.3989 12.9954 73.6164 13.1468 73.9416 13.2344L74.238 13.3143L74.1764 13.5428L71.2618 12.7571L71.3234 12.5286L71.6137 12.6069C71.9718 12.7034 72.2538 12.6646 72.4597 12.4905C72.5858 12.3832 72.7121 12.0949 72.8386 11.6256L74.4083 5.80265C74.242 5.45313 74.1073 5.21589 74.0041 5.09092C73.905 4.96706 73.7446 4.83329 73.5228 4.6896C73.4134 4.62036 73.2372 4.55301 72.9944 4.48754L73.0559 4.25906Z" fill="black"/>
<path d="M92.8118 11.5426L91.7433 14.0725L91.5448 13.9689C91.6603 13.2596 91.6392 12.669 91.4816 12.1971C91.2552 11.5162 90.783 10.9882 90.0649 10.6132C89.086 10.1021 88.1392 10.1007 87.2245 10.609C86.456 11.0398 85.8359 11.7069 85.3642 12.6101C84.9814 13.3433 84.7738 14.0863 84.7415 14.839C84.7092 15.5917 84.8477 16.2292 85.157 16.7514C85.472 17.2719 85.8714 17.6584 86.3551 17.911C86.6386 18.059 86.9313 18.1662 87.2334 18.2325C87.5354 18.2988 87.8458 18.3262 88.1645 18.3147L89.3249 16.0924C89.5262 15.7069 89.6272 15.4398 89.6279 15.2911C89.6344 15.1405 89.591 15.0025 89.4979 14.8769C89.4105 14.7495 89.2119 14.6049 88.9019 14.443L89.0144 14.2276L91.9907 15.7817L91.8782 15.9972L91.7364 15.9232C91.4417 15.7692 91.1882 15.7619 90.9759 15.9012C90.8273 16.0016 90.6455 16.2577 90.4304 16.6697L89.2019 19.0223C88.6449 19.0297 88.1261 18.9776 87.6456 18.8662C87.1651 18.7548 86.666 18.5639 86.1482 18.2935C84.6629 17.5179 83.7834 16.4526 83.5098 15.0977C83.3045 14.0814 83.4456 13.1066 83.9331 12.1731C84.2863 11.4966 84.7873 10.9333 85.436 10.4832C86.2063 9.9475 87.0314 9.65689 87.9114 9.61134C88.6462 9.57659 89.3972 9.75952 90.1644 10.1601C90.4441 10.3062 90.6854 10.4611 90.8885 10.6248C91.0954 10.7906 91.3681 11.0605 91.7067 11.4345C91.8769 11.6243 91.9979 11.738 92.0697 11.7755C92.1415 11.813 92.2188 11.8125 92.3014 11.7739C92.3899 11.7335 92.4901 11.6199 92.6021 11.433L92.8118 11.5426Z" fill="black"/>
<path d="M97.1688 24.2754C97.3174 24.4098 97.3951 24.575 97.4018 24.7708C97.4115 24.9636 97.3505 25.1326 97.2189 25.278C97.0873 25.4235 96.9221 25.5012 96.7234 25.5111C96.5307 25.5207 96.3616 25.4597 96.2162 25.3281C96.0708 25.1966 95.9917 25.033 95.9789 24.8374C95.9721 24.6415 96.0345 24.4709 96.1661 24.3255C96.3006 24.1769 96.4641 24.0978 96.6568 24.0881C96.8527 24.0814 97.0234 24.1438 97.1688 24.2754Z" fill="black"/>
<path d="M110.334 28.6245L107.498 30.5493L108.568 32.1263C108.846 32.5355 109.093 32.7671 109.31 32.8209C109.597 32.8942 109.952 32.8026 110.375 32.546L110.508 32.7418L108.01 34.4368L107.878 34.241C108.193 33.9546 108.384 33.7532 108.449 33.6368C108.53 33.4895 108.556 33.3196 108.528 33.127C108.501 32.9345 108.385 32.6883 108.182 32.3884L107.112 30.8114L104.746 32.4167C104.429 32.6321 104.244 32.7779 104.193 32.854C104.145 32.9277 104.124 33.0142 104.129 33.1135C104.138 33.2104 104.21 33.3577 104.344 33.5552L105.17 34.7724C105.445 35.1781 105.673 35.4535 105.854 35.5987C106.035 35.7438 106.266 35.8448 106.547 35.9016C106.914 35.9719 107.396 35.9721 107.992 35.9021L108.136 36.1138L105.917 36.7156L102.164 31.1856L102.36 31.0527L102.532 31.3067C102.647 31.4761 102.796 31.6091 102.981 31.7057C103.114 31.7803 103.25 31.7987 103.389 31.7609C103.531 31.7266 103.776 31.591 104.125 31.3539L108.788 28.1902C109.243 27.8813 109.492 27.6451 109.536 27.4816C109.591 27.2588 109.517 26.9993 109.316 26.7029L109.144 26.4489L109.34 26.316L113.092 31.8461L111.575 32.992L111.435 32.7857C111.762 32.4554 111.965 32.1965 112.044 32.009C112.125 31.8251 112.143 31.6198 112.097 31.3931C112.054 31.2161 111.912 30.9494 111.67 30.5931L110.334 28.6245Z" fill="black"/>
<path d="M113.779 41.9369L111.929 44.7198C111.418 45.4905 111.116 46.0293 111.021 46.3361C110.933 46.6453 110.952 46.9811 111.08 47.3437L110.861 47.4344L109.434 43.9967L109.653 43.906C109.751 44.1327 109.845 44.2923 109.934 44.3845C110.004 44.4525 110.085 44.4974 110.177 44.5192C110.275 44.5432 110.361 44.5398 110.436 44.5087C110.527 44.4711 110.61 44.4158 110.686 44.3428C110.741 44.2874 110.87 44.1072 111.071 43.8021L112.562 41.5904L109.716 40.8053C109.414 40.7229 109.216 40.6803 109.123 40.6776C109.033 40.6732 108.947 40.6882 108.864 40.7225C108.738 40.7748 108.656 40.8713 108.618 41.0119C108.579 41.1525 108.616 41.375 108.728 41.6791L108.51 41.7699L107.331 38.9287L107.549 38.838C107.652 39.0307 107.765 39.1868 107.889 39.3063C108.093 39.508 108.327 39.6831 108.592 39.8317C108.856 39.9803 109.227 40.122 109.703 40.2568L112.874 41.1564L114.529 38.6207C114.977 37.9316 115.235 37.3973 115.304 37.018C115.376 36.637 115.338 36.2491 115.188 35.8543L115.406 35.7636L116.944 39.4671L116.725 39.5579C116.582 39.2477 116.441 39.0524 116.302 38.9719C116.164 38.8953 116.04 38.8798 115.929 38.9256C115.784 38.9861 115.61 39.1689 115.409 39.4739L114.082 41.465L116.475 42.1408C116.756 42.2179 116.943 42.2578 117.037 42.2606C117.132 42.2673 117.221 42.2534 117.303 42.2191C117.386 42.1848 117.449 42.1309 117.492 42.0575C117.551 41.9641 117.577 41.8656 117.571 41.762C117.568 41.6567 117.511 41.4615 117.397 41.1763L117.615 41.0856L118.795 43.9267L118.576 44.0174C118.471 43.7979 118.36 43.6295 118.242 43.5123C118.063 43.3372 117.86 43.193 117.633 43.0795C117.406 42.966 117.018 42.8337 116.471 42.6824L113.779 41.9369Z" fill="black"/>
<path d="M115.816 50.97L113.339 51.4637C112.804 51.5704 112.483 51.6952 112.377 51.8381C112.224 52.0336 112.18 52.2924 112.244 52.6143L112.309 52.9405L112.077 52.9867L111.351 49.3427L111.583 49.2964L111.647 49.6163C111.719 49.9759 111.887 50.2097 112.152 50.3178C112.298 50.3756 112.614 50.3561 113.099 50.2595L118.593 49.1646C119.128 49.0579 119.45 48.9352 119.557 48.7965C119.708 48.5968 119.752 48.3359 119.688 48.0139L119.624 47.6941L119.856 47.6478L120.477 50.765C120.629 51.526 120.669 52.1419 120.598 52.6126C120.53 53.0825 120.341 53.505 120.028 53.8802C119.716 54.2554 119.305 54.4939 118.795 54.5955C118.101 54.7339 117.491 54.6164 116.964 54.2431C116.438 53.874 116.092 53.2713 115.926 52.435C115.885 52.2301 115.855 52.0056 115.837 51.7614C115.819 51.5173 115.812 51.2535 115.816 50.97ZM116.174 50.8988C116.176 51.1287 116.184 51.3315 116.197 51.5071C116.21 51.6827 116.229 51.8311 116.253 51.9524C116.34 52.3872 116.582 52.7281 116.979 52.9751C117.381 53.2254 117.849 53.2972 118.385 53.1905C118.753 53.1172 119.078 52.974 119.362 52.761C119.65 52.5471 119.844 52.2868 119.943 51.98C120.047 51.6724 120.064 51.3429 119.994 50.9917C119.952 50.7785 119.857 50.5125 119.711 50.1938L116.174 50.8988Z" fill="black"/>
<path d="M121.191 60.4613L117.764 60.5131L117.792 62.4187C117.8 62.9132 117.879 63.2425 118.031 63.4065C118.231 63.6252 118.578 63.7436 119.073 63.7617L119.076 63.9983L116.058 64.0439L116.054 63.8073C116.476 63.7413 116.745 63.6775 116.864 63.616C117.012 63.537 117.127 63.4095 117.21 63.2334C117.292 63.0573 117.331 62.7881 117.326 62.4257L117.297 60.5201L114.438 60.5633C114.055 60.5691 113.82 60.5897 113.736 60.6251C113.655 60.6604 113.59 60.7211 113.54 60.8072C113.495 60.8931 113.474 61.0555 113.477 61.2942L113.499 62.765C113.507 63.2552 113.546 63.6107 113.618 63.8313C113.689 64.052 113.827 64.2631 114.03 64.4647C114.299 64.725 114.701 64.9897 115.238 65.2588L115.242 65.5145L113.057 64.7992L112.956 58.1168L113.192 58.1133L113.197 58.4202C113.2 58.6248 113.252 58.8181 113.353 58.9999C113.423 59.1353 113.527 59.2254 113.664 59.2702C113.801 59.3193 114.081 59.3407 114.503 59.3343L120.137 59.2492C120.687 59.2409 121.025 59.1803 121.151 59.0676C121.319 58.9115 121.4 58.6545 121.395 58.2964L121.39 57.9894L121.627 57.9858L121.728 64.6682L119.83 64.7928L119.826 64.5434C120.281 64.447 120.593 64.3421 120.762 64.2287C120.931 64.1195 121.058 63.9577 121.145 63.7432C121.206 63.5717 121.234 63.2707 121.227 62.8401L121.191 60.4613Z" fill="black"/>
<path d="M111.426 76.0464L111.837 73.7681L116.349 71.5996C116.379 71.3841 116.406 71.2092 116.43 71.075C116.44 71.0204 116.451 70.9617 116.462 70.8987C116.478 70.8366 116.494 70.7723 116.51 70.7059L114.03 70.2583C113.493 70.1613 113.149 70.1598 112.998 70.2538C112.784 70.3799 112.649 70.6024 112.591 70.9213L112.531 71.2549L112.298 71.2128L112.958 67.5562L113.191 67.5983L113.133 67.9193C113.068 68.2801 113.139 68.5593 113.346 68.757C113.46 68.8686 113.76 68.9683 114.247 69.0562L119.76 70.0514C120.297 70.1484 120.642 70.1499 120.793 70.0559C121.007 69.9256 121.143 69.6989 121.202 69.3758L121.26 69.0548L121.492 69.0968L120.931 72.2059C120.768 73.1122 120.58 73.7672 120.368 74.1709C120.16 74.5796 119.851 74.9007 119.441 75.1342C119.034 75.3727 118.585 75.4476 118.094 75.359C117.569 75.2643 117.145 75.0101 116.821 74.5964C116.497 74.1868 116.319 73.6089 116.289 72.8627L113.523 74.1829C112.888 74.4842 112.452 74.763 112.215 75.0192C111.979 75.2753 111.793 75.6318 111.658 76.0884L111.426 76.0464ZM116.906 70.7775C116.892 70.8572 116.877 70.926 116.863 70.984C116.852 71.0428 116.843 71.091 116.836 71.1288C116.689 71.9428 116.755 72.5872 117.033 73.062C117.311 73.541 117.722 73.8297 118.268 73.9282C118.801 74.0244 119.263 73.9345 119.655 73.6587C120.051 73.3878 120.298 72.9776 120.397 72.4279C120.441 72.1846 120.461 71.848 120.456 71.4183L116.906 70.7775Z" fill="black"/>
<path d="M109.812 81.1602L109.589 81.0822L110.814 77.5742L111.038 77.6522L110.936 77.942C110.818 78.2802 110.831 78.5601 110.975 78.782C111.07 78.9236 111.363 79.0801 111.854 79.2516L117.143 81.0987C117.558 81.2434 117.841 81.3129 117.992 81.3069C118.106 81.3018 118.222 81.2495 118.338 81.1501C118.496 81.0067 118.609 80.8384 118.677 80.6452L118.778 80.3554L119.001 80.4334L117.776 83.9413L117.553 83.8633L117.656 83.5675C117.773 83.2334 117.759 82.9554 117.616 82.7336C117.522 82.588 117.229 82.4294 116.738 82.2579L111.449 80.4108C111.035 80.2661 110.752 80.1966 110.601 80.2026C110.486 80.2077 110.37 80.262 110.253 80.3655C110.096 80.5048 109.983 80.6711 109.916 80.8643L109.812 81.1602Z" fill="black"/>
<path d="M115.018 88.9868L111.989 87.3817L111.097 89.0656C110.865 89.5027 110.776 89.8296 110.83 90.0464C110.9 90.3341 111.147 90.605 111.572 90.8592L111.461 91.0683L108.794 89.6548L108.905 89.4458C109.306 89.5907 109.573 89.6647 109.706 89.6679C109.874 89.6699 110.037 89.6137 110.194 89.4992C110.351 89.3846 110.515 89.1673 110.684 88.847L111.577 87.1631L109.051 85.8245C108.712 85.6448 108.496 85.55 108.405 85.5403C108.318 85.5325 108.231 85.5543 108.146 85.6056C108.065 85.659 107.968 85.7912 107.856 86.0022L107.168 87.3019C106.938 87.7351 106.801 88.0657 106.758 88.2935C106.714 88.5213 106.733 88.7726 106.814 89.0472C106.924 89.4046 107.15 89.8305 107.491 90.3249L107.371 90.5509L105.8 88.8716L108.93 82.9664L109.139 83.0772L108.995 83.3485C108.899 83.5293 108.852 83.7237 108.852 83.9316C108.849 84.0841 108.896 84.213 108.995 84.3183C109.091 84.4274 109.326 84.5808 109.699 84.7784L114.678 87.4167C115.164 87.6743 115.489 87.784 115.654 87.7459C115.877 87.6902 116.072 87.5041 116.239 87.1876L116.383 86.9164L116.592 87.0272L113.463 92.9324L111.74 92.1277L111.856 91.9073C112.301 92.0418 112.625 92.1 112.828 92.082C113.028 92.0676 113.218 91.9872 113.397 91.8408C113.533 91.7201 113.702 91.4694 113.904 91.089L115.018 88.9868Z" fill="black"/>
<path d="M111.366 96.4709L109.867 98.2859L101.476 98.2339L105.333 101.418C105.744 101.757 106.039 101.923 106.216 101.915C106.455 101.907 106.683 101.772 106.9 101.509L107.091 101.277L107.274 101.428L105.352 103.755L105.17 103.605L105.365 103.368C105.598 103.085 105.679 102.814 105.605 102.555C105.56 102.395 105.35 102.161 104.975 101.852L99.3375 97.1982L99.4841 97.0206L108.51 97.0574L104.391 93.6578C103.98 93.3185 103.687 93.1511 103.512 93.1558C103.271 93.1667 103.043 93.3021 102.829 93.5618L102.633 93.7986L102.451 93.6479L104.372 91.32L104.555 91.4707L104.364 91.7025C104.127 91.9885 104.046 92.2613 104.119 92.5208C104.165 92.68 104.375 92.9143 104.75 93.2237L109.401 97.063C109.788 97.0563 110.059 97.0319 110.216 96.9897C110.37 96.9507 110.558 96.8601 110.78 96.7176C110.889 96.6467 111.023 96.5143 111.183 96.3203L111.366 96.4709Z" fill="black"/>
<path d="M96.7499 111.326L94.7596 109.142L94.9148 109.019C95.671 109.545 96.3618 109.808 96.987 109.806C97.6123 109.804 98.1935 109.59 98.7308 109.163C99.1813 108.805 99.4968 108.366 99.6774 107.846C99.8607 107.33 99.8584 106.738 99.6705 106.07C99.4794 105.405 99.0879 104.701 98.4961 103.956C98.0078 103.342 97.486 102.888 96.9309 102.595C96.3757 102.301 95.8058 102.19 95.2209 102.263C94.6327 102.339 94.0851 102.578 93.5778 102.981C93.1374 103.332 92.8229 103.734 92.6345 104.189C92.4487 104.647 92.3769 105.317 92.419 106.199L92.1842 106.222C92.0442 105.348 92.0897 104.59 92.3206 103.949C92.5515 103.307 92.9789 102.739 93.6029 102.242C94.7275 101.348 95.9302 101.073 97.211 101.416C98.1651 101.67 98.9765 102.218 99.6453 103.059C100.184 103.736 100.527 104.479 100.675 105.288C100.822 106.097 100.754 106.867 100.47 107.6C100.186 108.338 99.7281 108.958 99.0975 109.46C98.6069 109.85 98.0275 110.114 97.3593 110.254C97.1607 110.292 97.0314 110.334 96.9714 110.382C96.8813 110.454 96.8281 110.548 96.8118 110.664C96.7966 110.824 96.8344 110.998 96.9251 111.187L96.7499 111.326Z" fill="black"/>
<path d="M90.7316 114.184L89.1543 111.141L87.4622 112.018C87.0231 112.246 86.7641 112.464 86.6851 112.673C86.5785 112.949 86.6276 113.312 86.8325 113.763L86.6224 113.872L85.2334 111.192L85.4435 111.083C85.6907 111.431 85.8683 111.643 85.9762 111.722C86.113 111.819 86.2786 111.865 86.4731 111.861C86.6675 111.856 86.9256 111.77 87.2474 111.603L88.9395 110.727L87.624 108.188C87.4475 107.848 87.3244 107.647 87.2549 107.587C87.1873 107.531 87.1039 107.5 87.0047 107.494C86.9074 107.491 86.7528 107.545 86.5408 107.655L85.2348 108.332C84.7995 108.557 84.4991 108.751 84.3337 108.914C84.1682 109.077 84.0407 109.294 83.9513 109.566C83.8382 109.922 83.7813 110.401 83.7804 111.002L83.5533 111.119L83.2171 108.844L89.1507 105.769L89.2596 105.979L88.987 106.121C88.8053 106.215 88.6557 106.348 88.538 106.519C88.4483 106.642 88.414 106.775 88.4351 106.918C88.4525 107.063 88.5583 107.322 88.7525 107.697L91.3451 112.7C91.5981 113.188 91.8033 113.463 91.9606 113.526C92.1753 113.607 92.4417 113.565 92.7597 113.4L93.0322 113.259L93.1411 113.469L87.2075 116.544L86.2483 114.902L86.4698 114.787C86.7592 115.151 86.9923 115.383 87.1692 115.483C87.3423 115.586 87.5441 115.628 87.7746 115.609C87.9554 115.587 88.237 115.477 88.6193 115.279L90.7316 114.184Z" fill="black"/>
<path d="M80.7298 110.022L80.7941 110.25L80.4802 110.339C80.1274 110.438 79.909 110.622 79.825 110.889C79.773 111.05 79.8137 111.367 79.947 111.838L81.4703 117.23C81.6175 117.751 81.7671 118.061 81.9191 118.16C82.1301 118.295 82.3936 118.318 82.7095 118.229L83.0234 118.14L83.0877 118.368L79.6905 119.328C78.4432 119.68 77.4554 119.806 76.7272 119.706C75.9948 119.607 75.3384 119.283 74.7579 118.734C74.1732 118.186 73.7586 117.479 73.514 116.613C73.1859 115.452 73.2646 114.382 73.7501 113.403C74.2962 112.31 75.3795 111.534 77.0002 111.076L80.7298 110.022ZM78.5184 111.298C77.9649 111.331 77.5117 111.397 77.1588 111.496C76.207 111.765 75.5116 112.323 75.0728 113.169C74.6341 114.015 74.5764 115.011 74.8998 116.155C75.2256 117.308 75.7962 118.128 76.6118 118.616C77.4273 119.103 78.3275 119.208 79.3122 118.929C79.6814 118.825 80.0852 118.647 80.5234 118.394L78.5184 111.298Z" fill="black"/>
<path d="M68.7083 114.059C68.5093 114.083 68.3337 114.033 68.1817 113.909C68.0302 113.789 67.9428 113.632 67.9198 113.438C67.8967 113.243 67.9467 113.067 68.0699 112.911C68.1893 112.76 68.3464 112.672 68.5411 112.649C68.7359 112.626 68.9112 112.674 69.067 112.793C69.219 112.917 69.3066 113.076 69.3297 113.27C69.3532 113.469 69.3053 113.645 69.1859 113.796C69.0622 113.948 68.903 114.036 68.7083 114.059Z" fill="black"/>
<path d="M60.4393 86.0662C61.0251 86.652 61.9749 86.652 62.5607 86.0662L72.1066 76.5202C72.6924 75.9344 72.6924 74.9847 72.1066 74.3989C71.5208 73.8131 70.5711 73.8131 69.9853 74.3989L61.5 82.8842L53.0147 74.3989C52.4289 73.8131 51.4792 73.8131 50.8934 74.3989C50.3076 74.9847 50.3076 75.9344 50.8934 76.5202L60.4393 86.0662ZM60 40.9941L60 85.0055H63L63 40.9941H60Z" fill="#0A0912"/>
</svg>
